<svg width="54" height="64" viewBox="0 0 54 64" fill="none" xmlns="http://www.w3.org/2000/svg">
<path d="M47.625 7.5H45.5614C44.6899 3.22638 40.9033 0 36.375 0C31.2059 0 27 4.20587 27 9.375C27 10.4114 27.8386 11.25 28.875 11.25L24.7808 15.3442C24.1922 14.0426 22.8953 13.125 21.375 13.125H13.875C12.3547 13.125 11.0577 14.0426 10.4692 15.3442L6.375 11.25L0.75 15V18.75L6.375 22.5L10.4692 18.4058C11.0577 19.7074 12.3547 20.625 13.875 20.625H21.375C22.8953 20.625 24.1922 19.7074 24.7808 18.4058L28.875 22.5L30.75 21.25V50.875C30.75 51.9095 29.9095 52.75 28.875 52.75C27.8386 52.75 27 53.5886 27 54.625C27 59.7941 31.2059 64 36.375 64C40.9033 64 44.6899 60.7736 45.5614 56.5H47.625C50.7267 56.5 53.25 53.9767 53.25 50.875V13.125C53.25 10.0233 50.7267 7.5 47.625 7.5ZM28.875 47.125C28.875 45.0578 27.1941 43.375 25.125 43.375H10.125C8.05587 43.375 6.375 45.0578 6.375 47.125C6.375 49.1922 8.05587 50.875 10.125 50.875H25.125C27.1941 50.875 28.875 49.1922 28.875 47.125ZM25.3154 25.9721L22.3307 25.5235L20.9794 22.8209C19.5662 20.0029 15.6804 20.007 14.2704 22.8228L12.919 25.5235L9.93437 25.9721C6.8935 26.433 5.64937 30.1665 7.858 32.3551L10.0114 34.4736L9.517 37.4509C9.01675 40.4642 12.1405 42.8175 14.9443 41.3968L17.625 40.0054L20.3056 41.3951C23.0334 42.8154 26.2415 40.5127 25.7329 37.4529L25.2385 34.4738L27.3955 32.3515C29.5976 30.1694 28.3584 26.4334 25.3154 25.9721Z" fill="url(#paint0_linear_8817_845)"/>
<path d="M28.875 15H34.5V13.125C34.5 10.0125 31.9876 7.5 28.875 7.5H26.8125C25.9499 3.225 22.1625 0 17.625 0C13.0875 0 9.30013 3.225 8.4375 7.5H6.375C3.26238 7.5 0.75 10.0125 0.75 13.125V15H6.375C7.42513 15 8.25 15.8249 8.25 16.875C8.25 17.9249 7.42513 18.75 6.375 18.75H0.75V50.875C0.75 53.9873 3.26238 56.5 6.375 56.5H8.4375C9.30013 60.775 13.0875 64 17.625 64C22.1625 64 25.9499 60.775 26.8125 56.5H28.875C31.9876 56.5 34.5 53.9873 34.5 50.875V18.75H28.875C27.8249 18.75 27 17.9249 27 16.875C27 15.8249 27.8249 15 28.875 15ZM13.875 15H21.375C22.4114 15 23.25 15.8386 23.25 16.875C23.25 17.9114 22.4114 18.75 21.375 18.75H13.875C12.8386 18.75 12 17.9114 12 16.875C12 15.8386 12.8386 15 13.875 15ZM10.2129 27.827L14.1625 27.2337L15.9478 23.6614C16.585 22.3906 18.665 22.3906 19.3022 23.6614L21.0875 27.2337L25.0371 27.827C26.5513 28.0557 27.1826 29.9233 26.0754 31.0185L23.2281 33.82L23.8836 37.7604C24.1384 39.285 22.5366 40.4388 21.17 39.7324L17.625 37.8924L14.0801 39.7326C12.6814 40.4461 11.1156 39.2621 11.3665 37.7606L12.022 33.8203L9.17475 31.0187C8.06388 29.9198 8.70275 28.0551 10.2129 27.827ZM25.125 49H10.125C9.08862 49 8.25 48.1614 8.25 47.125C8.25 46.0886 9.08862 45.25 10.125 45.25H25.125C26.1614 45.25 27 46.0886 27 47.125C27 48.1614 26.1614 49 25.125 49Z" fill="url(#paint1_linear_8817_845)"/>
<defs>
<linearGradient id="paint0_linear_8817_845" x1="27" y1="64" x2="27" y2="0" gradientUnits="userSpaceOnUse">
<stop stop-color="#3182CE"/>
<stop offset="1" stop-color="#4299E1"/>
</linearGradient>
<linearGradient id="paint1_linear_8817_845" x1="17.625" y1="64" x2="17.625" y2="0" gradientUnits="userSpaceOnUse">
<stop stop-color="#2A4365"/>
<stop offset="1" stop-color="#2B6CB0"/>
</linearGradient>
</defs>
</svg>
