<svg width="32" height="32" viewBox="0 0 32 32" fill="none" xmlns="http://www.w3.org/2000/svg">
<path d="M27.25 1.875H23.5C22.9818 1.875 22.5625 2.29431 22.5625 2.8125C22.5625 3.33069 22.9818 3.75 23.5 3.75H27.25C27.7673 3.75 28.1875 4.17025 28.1875 4.6875V8.5C28.1875 10.0509 26.9259 11.3125 25.375 11.3125H23.5C22.9818 11.3125 22.5625 11.7318 22.5625 12.25C22.5625 12.7682 22.9818 13.1875 23.5 13.1875H25.375C27.9596 13.1875 30.0625 11.0846 30.0625 8.5V4.6875C30.0625 3.13663 28.8009 1.875 27.25 1.875ZM4.75 3.75H8.5C9.01819 3.75 9.4375 3.33069 9.4375 2.8125C9.4375 2.29431 9.01819 1.875 8.5 1.875H4.75C3.19913 1.875 1.9375 3.13663 1.9375 4.6875V8.5C1.9375 11.0846 4.04044 13.1875 6.625 13.1875H8.5C9.01819 13.1875 9.4375 12.7682 9.4375 12.25C9.4375 11.7318 9.01819 11.3125 8.5 11.3125H6.625C5.07413 11.3125 3.8125 10.0509 3.8125 8.5V4.6875C3.8125 4.17025 4.23275 3.75 4.75 3.75ZM19.8379 7.36106L18.3474 7.14406L17.6827 5.79644C17.3769 5.17662 16.7324 4.72963 15.9999 4.72963C15.2675 4.72963 14.623 5.17662 14.319 5.79556L13.6525 7.14412L12.162 7.36112C11.4534 7.46456 10.8748 7.95162 10.6496 8.63737C10.428 9.32037 10.6093 10.0555 11.1238 10.5591L12.2023 11.6092L11.9496 13.0869C11.8251 13.7845 12.1181 14.5059 12.6912 14.9243C13.2965 15.368 14.0748 15.3857 14.6669 15.0689L16 14.3685L17.3312 15.0671C17.9774 15.4101 18.752 15.3337 19.3088 14.9242C19.8819 14.5059 20.1748 13.7844 20.0522 13.0922L19.7977 11.6091L20.878 10.5572C21.3907 10.0555 21.572 9.32031 21.3486 8.63369C21.1251 7.95163 20.5465 7.46456 19.8379 7.36106ZM16.9375 23.5625V19.75C16.9375 19.2318 16.5182 18.8125 16 18.8125C15.4818 18.8125 15.0625 19.2318 15.0625 19.75V23.5625C15.0625 24.0807 15.4818 24.5 16 24.5C16.5182 24.5 16.9375 24.0807 16.9375 23.5625ZM4.6875 16.9375H3.75V16C3.75 15.4818 3.33069 15.0625 2.8125 15.0625C2.29431 15.0625 1.875 15.4818 1.875 16V16.9375H0.9375C0.419312 16.9375 0 17.3568 0 17.875C0 18.3932 0.419312 18.8125 0.9375 18.8125H1.875V19.75C1.875 20.2682 2.29431 20.6875 2.8125 20.6875C3.33069 20.6875 3.75 20.2682 3.75 19.75V18.8125H4.6875C5.20569 18.8125 5.625 18.3932 5.625 17.875C5.625 17.3568 5.20569 16.9375 4.6875 16.9375ZM16.9375 25.4375H15.0625C14.0279 25.4375 13.1875 26.2789 13.1875 27.3125C13.1875 28.3461 14.0279 29.1875 15.0625 29.1875H16.9375C17.9721 29.1875 18.8125 28.3461 18.8125 27.3125C18.8125 26.2789 17.9721 25.4375 16.9375 25.4375Z" fill="url(#paint0_linear_8794_2898)"/>
<path d="M23.5 0H8.5C7.98181 0 7.5625 0.419312 7.5625 0.9375V12.25C7.5625 16.9027 11.3473 20.6875 16 20.6875C20.6527 20.6875 24.4375 16.9027 24.4375 12.25V0.9375C24.4375 0.419312 24.0182 0 23.5 0ZM20.2215 9.887L18.7905 11.2814L19.1283 13.2507C19.1888 13.6023 19.0441 13.9575 18.7557 14.1671C18.473 14.3736 18.0895 14.4079 17.7678 14.2386L16 13.3092L14.2321 14.2385C13.9163 14.4069 13.5336 14.3786 13.2443 14.1671C12.9559 13.9574 12.8112 13.6022 12.8716 13.2506L13.2094 11.2813L11.7784 9.88694C11.523 9.63794 11.4314 9.26531 11.5413 8.92656C11.6521 8.58687 11.9451 8.33969 12.2984 8.28844L14.2751 8.00094L15.1594 6.21019C15.4744 5.56931 16.5254 5.56931 16.8404 6.21019L17.7248 8.00094L19.7014 8.28844C20.0547 8.33969 20.3477 8.58687 20.4585 8.92656C20.5685 9.26538 20.4769 9.638 20.2215 9.887ZM31.0625 16.9375H30.125V16C30.125 15.4818 29.7057 15.0625 29.1875 15.0625C28.6693 15.0625 28.25 15.4818 28.25 16V16.9375H27.3125C26.7943 16.9375 26.375 17.3568 26.375 17.875C26.375 18.3932 26.7943 18.8125 27.3125 18.8125H28.25V19.75C28.25 20.2682 28.6693 20.6875 29.1875 20.6875C29.7057 20.6875 30.125 20.2682 30.125 19.75V18.8125H31.0625C31.5807 18.8125 32 18.3932 32 17.875C32 17.3568 31.5807 16.9375 31.0625 16.9375ZM20.6591 23.3354C20.5547 22.918 20.1803 22.625 19.75 22.625H12.25C11.8197 22.625 11.4452 22.918 11.3409 23.3354L9.46587 30.8354C9.39537 31.1156 9.45856 31.4123 9.63619 31.6392C9.81381 31.8673 10.0866 32 10.375 32H21.625C21.9134 32 22.1862 31.8673 22.3638 31.6393C22.5414 31.4123 22.6046 31.1156 22.5341 30.8355L20.6591 23.3354ZM16.9375 28.25H15.0625C14.5443 28.25 14.125 27.8307 14.125 27.3125C14.125 26.7943 14.5443 26.375 15.0625 26.375H16.9375C17.4557 26.375 17.875 26.7943 17.875 27.3125C17.875 27.8307 17.4557 28.25 16.9375 28.25Z" fill="url(#paint1_linear_8794_2898)"/>
<defs>
<linearGradient id="paint0_linear_8794_2898" x1="15.0312" y1="29.1875" x2="15.0312" y2="1.875" gradientUnits="userSpaceOnUse">
<stop stop-color="#F6E05E"/>
<stop offset="1" stop-color="#FEFCBF"/>
</linearGradient>
<linearGradient id="paint1_linear_8794_2898" x1="19.7812" y1="32" x2="19.7812" y2="0" gradientUnits="userSpaceOnUse">
<stop stop-color="#B7791F"/>
<stop offset="1" stop-color="#ECC94B"/>
</linearGradient>
</defs>
</svg>
