<svg width="24" height="24" viewBox="0 0 24 24" fill="none" xmlns="http://www.w3.org/2000/svg">
<g clip-path="url(#clip0_9049_3538)">
<path d="M12 24C18.6274 24 24 18.6274 24 12C24 5.37258 18.6274 0 12 0C5.37258 0 0 5.37258 0 12C0 18.6274 5.37258 24 12 24Z" fill="#0364FF"/>
<path fill-rule="evenodd" clip-rule="evenodd" d="M8.03895 7.11914C7.46543 7.11914 7.00049 7.58407 7.00049 8.1576V9.36735C7.00049 9.94087 7.46543 10.4058 8.03895 10.4058H9.8763V17.1732C9.8763 17.7467 10.3412 18.2116 10.9148 18.2116H12.1245C12.698 18.2116 13.163 17.7467 13.163 17.1732V9.37612C13.163 9.3732 13.163 9.37027 13.163 9.36735V8.1576C13.163 7.58407 12.698 7.11914 12.1245 7.11914H10.9148H8.03895Z" fill="#E2E8F0"/>
<path d="M15.6282 10.4058C16.5358 10.4058 17.2715 9.67005 17.2715 8.76247C17.2715 7.8549 16.5358 7.11914 15.6282 7.11914C14.7206 7.11914 13.9849 7.8549 13.9849 8.76247C13.9849 9.67005 14.7206 10.4058 15.6282 10.4058Z" fill="#E2E8F0"/>
</g>
<defs>
<clipPath id="clip0_9049_3538">
<rect width="24" height="24" fill="white"/>
</clipPath>
</defs>
</svg>
